<?xml version="1.0" encoding="UTF-8"?>
<svg version="1.1" xmlns="http://www.w3.org/2000/svg" width="403" height="106">
<path d="M0 0 C4.62 0 9.24 0 14 0 C16.53547749 6.39579908 18.42142535 12.8543265 20.1875 19.5 C20.46013672 20.51320313 20.73277344 21.52640625 21.01367188 22.5703125 C21.67929321 25.04595676 22.34131557 27.52250281 23 30 C25.53547749 23.60420092 27.42142535 17.1456735 29.1875 10.5 C29.46013672 9.48679687 29.73277344 8.47359375 30.01367188 7.4296875 C30.67928735 4.95406502 31.34013541 2.47716155 32 0 C36.62 0 41.24 0 46 0 C45.33741114 6.39457064 43.53058268 12.27861112 41.62109375 18.40234375 C41.12380516 20.0188961 41.12380516 20.0188961 40.61647034 21.66810608 C39.5617304 25.09277696 38.49972637 28.51514467 37.4375 31.9375 C36.71891969 34.26612756 36.00081543 36.59490208 35.28320312 38.92382812 C33.52764454 44.61760227 31.76556993 50.30932268 30 56 C25.71 56 21.42 56 17 56 C12.52100053 42.2090752 8.16538353 28.38852312 4 14.5 C3.79891632 13.83103699 3.59783264 13.16207397 3.39065552 12.47283936 C0 1.18131182 0 1.18131182 0 0 Z " fill="#FA5E00" transform="translate(27,24)"/>
<path d="M0 0 C11.88 0 23.76 0 36 0 C35.28873414 3.55632931 34.7266005 5.96247147 33.32592773 9.14770508 C32.98565048 9.92813675 32.64537323 10.70856842 32.29478455 11.51264954 C31.92809158 12.3399205 31.56139862 13.16719147 31.18359375 14.01953125 C30.80767593 14.87810226 30.43175812 15.73667328 30.04444885 16.6212616 C28.84678297 19.3537435 27.64224707 22.08313386 26.4375 24.8125 C25.62259143 26.66841988 24.80813309 28.52453752 23.99414062 30.38085938 C22.00130431 34.92288133 20.0023026 39.46214368 18 44 C23.61 44 29.22 44 35 44 C35 47.96 35 51.92 35 56 C22.46 56 9.92 56 -3 56 C2.8279188 41.9158629 8.72192559 27.88892438 15 14 C10.05 13.67 5.1 13.34 0 13 C0 8.71 0 4.42 0 0 Z " fill="#001E75" transform="translate(233,24)"/>
<path d="M0 0 C4.29 0 8.58 0 13 0 C13.33 7.59 13.66 15.18 14 23 C15.32 22.01 16.64 21.02 18 20 C21.92040435 19.00207889 24.0794335 18.59085933 27.8125 20.25 C30 22 30 22 32 25 C32.17145815 27.61409145 32.23233432 30.11869674 32.1953125 32.73046875 C32.1924826 33.48088943 32.18965271 34.23131012 32.18673706 35.00447083 C32.17555062 37.39897675 32.15044928 39.79310731 32.125 42.1875 C32.11496819 43.81184355 32.10584269 45.43619297 32.09765625 47.06054688 C32.07561637 51.040509 32.0410974 55.02019088 32 59 C27.71 59 23.42 59 19 59 C18.505 46.13 18.505 46.13 18 33 C16.68 33 15.36 33 14 33 C13.67 41.58 13.34 50.16 13 59 C8.71 59 4.42 59 0 59 C0 39.53 0 20.06 0 0 Z " fill="#405590" transform="translate(194,21)"/>
<path d="M0 0 C3.0595797 2.86623221 3.93759494 4.49307634 4.45410156 8.6887207 C4.45347429 10.10123256 4.43122867 11.51385296 4.390625 12.92578125 C4.38496521 13.67337204 4.37930542 14.42096283 4.37347412 15.19120789 C4.35118468 17.56563911 4.30100656 19.93852938 4.25 22.3125 C4.22992519 23.92771249 4.21167613 25.54294877 4.1953125 27.15820312 C4.15134486 31.10605733 4.08237261 35.05276792 4 39 C-0.29 39 -4.58 39 -9 39 C-9.495 26.13 -9.495 26.13 -10 13 C-11.32 13 -12.64 13 -14 13 C-14.33 21.58 -14.66 30.16 -15 39 C-19.29 39 -23.58 39 -28 39 C-28 26.13 -28 13.26 -28 0 C-23.71 0 -19.42 0 -15 0 C-14.67 0.99 -14.34 1.98 -14 3 C-13.401875 2.525625 -12.80375 2.05125 -12.1875 1.5625 C-7.97841838 -1.44398687 -4.90806872 -1.20549056 0 0 Z " fill="#00299E" transform="translate(340,41)"/>
<path d="M0 0 C5.63929838 5.37076036 6.87484433 10.95559418 7.0625 18.625 C6.83324786 25.72417473 5.87531862 29.763126 1.3125 35.3125 C-3.09161187 38.89724222 -6.72352168 39.72017187 -12.3125 39.5 C-17.72872781 38.79034365 -21.00982401 36.78125168 -24.375 32.5 C-28.35854791 25.98405378 -28.2159405 18.33351384 -26.94140625 11.0078125 C-25.38193893 5.25424985 -22.49723561 1.58435693 -17.375 -1.5 C-11.64605795 -3.495212 -5.41604971 -2.4071332 0 0 Z M-13.0390625 10.66015625 C-14.85505395 13.16112694 -14.77496599 14.87084456 -14.75 17.9375 C-14.75773437 18.88496094 -14.76546875 19.83242188 -14.7734375 20.80859375 C-14.32290217 23.85191571 -13.40117742 25.23261099 -11.375 27.5 C-9.39963255 27.15213292 -9.39963255 27.15213292 -7.375 26.5 C-6.01949615 23.7889923 -6.20582793 21.58660831 -6.1875 18.5625 C-6.16623047 16.97115234 -6.16623047 16.97115234 -6.14453125 15.34765625 C-6.15934933 12.29722331 -6.15934933 12.29722331 -8.375 9.5 C-11.30293576 9.21404476 -11.30293576 9.21404476 -13.0390625 10.66015625 Z " fill="#002DAD" transform="translate(299.375,42.5)"/>
<path d="M0 0 C10.23 0 20.46 0 31 0 C31 4.62 31 9.24 31 14 C28.03 14 25.06 14 22 14 C22 27.86 22 41.72 22 56 C17.71 56 13.42 56 9 56 C9 42.14 9 28.28 9 14 C6.03 14 3.06 14 0 14 C0 9.38 0 4.76 0 0 Z " fill="#001759" transform="translate(96,24)"/>
<path d="M0 0 C5.16395954 3.86202906 7.00363599 8.68195256 7.96875 14.94140625 C7.96875 17.25140625 7.96875 19.56140625 7.96875 21.94140625 C1.36875 21.94140625 -5.23125 21.94140625 -12.03125 21.94140625 C-11.37125 23.92140625 -10.71125 25.90140625 -10.03125 27.94140625 C-8.38125 28.27140625 -6.73125 28.60140625 -5.03125 28.94140625 C-4.70125 27.95140625 -4.37125 26.96140625 -4.03125 25.94140625 C-0.40125 25.94140625 3.22875 25.94140625 6.96875 25.94140625 C6.01791353 31.22383106 4.52773366 34.48976831 0.2265625 37.828125 C-4.39812013 40.10846159 -9.06065668 39.93282717 -14.03125 38.94140625 C-18.66896973 36.76518276 -21.12390267 33.4591132 -22.96875 28.75390625 C-25.12478841 20.79932976 -25.19217431 12.23545683 -21.03125 4.94140625 C-15.35900012 -1.9250015 -8.1810177 -4.26356884 0 0 Z M-11.03125 8.94140625 C-11.68897428 11.97075116 -11.68897428 11.97075116 -12.03125 14.94140625 C-9.39125 14.94140625 -6.75125 14.94140625 -4.03125 14.94140625 C-4.36125 12.96140625 -4.69125 10.98140625 -5.03125 8.94140625 C-8.08038228 7.93029532 -8.08038228 7.93029532 -11.03125 8.94140625 Z " fill="#001961" transform="translate(152.03125,42.05859375)"/>
<path d="M0 0 C5.16395954 3.86202906 7.00363599 8.68195256 7.96875 14.94140625 C7.96875 17.25140625 7.96875 19.56140625 7.96875 21.94140625 C1.36875 21.94140625 -5.23125 21.94140625 -12.03125 21.94140625 C-11.37125 23.92140625 -10.71125 25.90140625 -10.03125 27.94140625 C-8.38125 28.27140625 -6.73125 28.60140625 -5.03125 28.94140625 C-4.70125 27.95140625 -4.37125 26.96140625 -4.03125 25.94140625 C-0.40125 25.94140625 3.22875 25.94140625 6.96875 25.94140625 C6.01791353 31.22383106 4.52773366 34.48976831 0.2265625 37.828125 C-4.39812013 40.10846159 -9.06065668 39.93282717 -14.03125 38.94140625 C-18.66896973 36.76518276 -21.12390267 33.4591132 -22.96875 28.75390625 C-25.12478841 20.79932976 -25.19217431 12.23545683 -21.03125 4.94140625 C-15.35900012 -1.9250015 -8.1810177 -4.26356884 0 0 Z M-11.03125 8.94140625 C-11.68897428 11.97075116 -11.68897428 11.97075116 -12.03125 14.94140625 C-9.39125 14.94140625 -6.75125 14.94140625 -4.03125 14.94140625 C-4.36125 12.96140625 -4.69125 10.98140625 -5.03125 8.94140625 C-8.08038228 7.93029532 -8.08038228 7.93029532 -11.03125 8.94140625 Z " fill="#001E73" transform="translate(375.03125,42.05859375)"/>
<path d="M0 0 C1.32 0.66 2.64 1.32 4 2 C4 5.63 4 9.26 4 13 C1.98177083 12.90234375 -0.03645833 12.8046875 -2.0546875 12.70703125 C-2.69664062 12.80371094 -3.33859375 12.90039062 -4 13 C-6.54393252 16.81589878 -6.57737956 19.5299647 -6 24 C-5.10242444 26.14780077 -5.10242444 26.14780077 -3 27 C0.62535976 27.2503577 0.62535976 27.2503577 4 27 C4 30.63 4 34.26 4 38 C-0.92053254 40.46026627 -4.58970452 40.68376562 -10 40 C-14.98383173 37.64400682 -17.02227569 35.10044691 -19 30 C-21.14302112 20.85443097 -20.75573959 12.25350934 -16 4 C-11.03062009 -0.96937991 -6.72286212 -1.4839331 0 0 Z " fill="#17317C" transform="translate(184,41)"/>
<path d="M0 0 C2.31 0 4.62 0 7 0 C7.12117187 1.2065625 7.24234375 2.413125 7.3671875 3.65625 C7.53615881 5.27086471 7.70544656 6.88544632 7.875 8.5 C7.95363281 9.29148437 8.03226563 10.08296875 8.11328125 10.8984375 C8.6662901 16.08821285 9.48569813 20.9971953 11 26 C12.93383287 27.30065921 12.93383287 27.30065921 15 28 C16.25 30.125 16.25 30.125 17 32 C15.515 32.495 15.515 32.495 14 33 C13.67 41.58 13.34 50.16 13 59 C8.71 59 4.42 59 0 59 C0 39.53 0 20.06 0 0 Z " fill="#00185E" transform="translate(194,21)"/>
<path d="M0 0 C1.5883272 4.1693589 2.30442659 7.53507661 2 12 C1.67 12.66 1.34 13.32 1 14 C0.87823497 15.80948495 0.82454208 17.62396271 0.8125 19.4375 C0.79123047 20.88962891 0.79123047 20.88962891 0.76953125 22.37109375 C0.80850549 25.23266727 0.80850549 25.23266727 3 28 C3.99 28.33 4.98 28.66 6 29 C6 30.32 6 31.64 6 33 C6.66 33 7.32 33 8 33 C8.04241723 35.33294775 8.04092937 37.66702567 8 40 C7 41 7 41 4.9609375 41.08984375 C-0.75159262 40.75330497 -4.47639584 39.88699518 -8.59375 35.7890625 C-13.43552495 29.62924882 -13.76711323 22.58469701 -13 15 C-11.90411742 8.70114337 -9.68008844 5.01086104 -4.71875 0.99609375 C-3 0 -3 0 0 0 Z " fill="#00185C" transform="translate(285,41)"/>
<path d="M0 0 C3.96 0 7.92 0 12 0 C13.3173767 7.96649849 13.11089426 15.95194375 13.0625 24 C13.05747576 25.45702971 13.05291449 26.9140611 13.04882812 28.37109375 C13.03789388 31.9140977 13.02068 35.45703797 13 39 C8.71 39 4.42 39 0 39 C0 26.13 0 13.26 0 0 Z " fill="#01207B" transform="translate(312,41)"/>
<path d="M0 0 C5.94 0 11.88 0 18 0 C17.28873414 3.55632931 16.7266005 5.96247147 15.32592773 9.14770508 C14.98565048 9.92813675 14.64537323 10.70856842 14.29478455 11.51264954 C13.92809158 12.3399205 13.56139862 13.16719147 13.18359375 14.01953125 C12.80767593 14.87810226 12.43175812 15.73667328 12.04444885 16.6212616 C10.84678297 19.3537435 9.64224707 22.08313386 8.4375 24.8125 C7.62259143 26.66841988 6.80813309 28.52453752 5.99414062 30.38085938 C4.00130431 34.92288133 2.0023026 39.46214368 0 44 C4.62 44 9.24 44 14 44 C13 48 13 48 11 50 C7.99053202 50.34534878 5.90625605 50.56788911 3 50 C0.0625 47.5625 0.0625 47.5625 -2 45 C-2.33 44.67 -2.66 44.34 -3 44 C-3.79636259 36.88961969 -3.63155817 31.4871525 0.80859375 25.71875 C2.81788306 22.82010312 3.08491319 20.76204143 2.6953125 17.265625 C2.50710937 16.27046875 2.31890625 15.2753125 2.125 14.25 C1.23938284 9.48513022 0.60452762 4.83622092 0 0 Z " fill="#29489F" transform="translate(251,24)"/>
<path d="M0 0 C4.29 0 8.58 0 13 0 C13 4.62 13 9.24 13 14 C10.03 14 7.06 14 4 14 C4 27.86 4 41.72 4 56 C1.69 56 -0.62 56 -3 56 C-6.09000963 49.81998073 -5.44321566 40.61473843 -4 34 C-2.5 32.25 -2.5 32.25 -1 31 C-0.28552357 28.89667109 -0.28552357 28.89667109 0 27 C0.66 27 1.32 27 2 27 C1.855625 26.05640625 1.71125 25.1128125 1.5625 24.140625 C0.38491026 15.99562928 -0.20386716 8.25661992 0 0 Z " fill="#002694" transform="translate(114,24)"/>
<path d="M0 0 C5.94364663 0.92228999 9.12388525 2.17652905 12.8125 7.0078125 C15.99259577 12.34284159 16.25295467 17.92908789 16 24 C5.39408914 24.76118977 5.39408914 24.76118977 2.08984375 22.95703125 C0.75 21.625 0.75 21.625 -1 19 C-1 18.34 -1 17.68 -1 17 C0.65 17 2.3 17 4 17 C3.67 15.02 3.34 13.04 3 11 C2.01 10.67 1.02 10.34 0 10 C0 6.7 0 3.4 0 0 Z " fill="#648DFB" transform="translate(367,40)"/>
<path d="M0 0 C2.4571309 2.1816874 3.83864166 3.88491195 4.31689453 7.18994141 C4.39356196 9.7423068 4.34893912 12.26101221 4.25 14.8125 C4.23195312 15.69615234 4.21390625 16.57980469 4.1953125 17.49023438 C4.14838513 19.66062543 4.07664731 21.83045519 4 24 C-0.98272733 23.34238116 -2.55753454 21.77071485 -5.58203125 17.9609375 C-9.22048593 12.92924536 -11.52361757 8.0285616 -13 2 C-8.275653 -0.88069939 -5.3637928 -1.58927194 0 0 Z " fill="#86A4F8" transform="translate(222,41)"/>
<path d="M0 0 C5.32629506 0.35207713 8.84238614 1.39755247 12.73046875 5.140625 C15.35805677 8.6747663 16.78229742 12.71132762 17.1796875 17.08984375 C16.23828125 19.39453125 16.23828125 19.39453125 15.1796875 21.08984375 C13.59673968 21.14421982 12.01324494 21.18280646 10.4296875 21.21484375 C9.54796875 21.23804687 8.66625 21.26125 7.7578125 21.28515625 C5.0661017 21.08123877 3.48063776 20.45536096 1.1796875 19.08984375 C1.1796875 18.42984375 1.1796875 17.76984375 1.1796875 17.08984375 C2.4996875 17.08984375 3.8196875 17.08984375 5.1796875 17.08984375 C4.8496875 15.10984375 4.5196875 13.12984375 4.1796875 11.08984375 C2.1996875 11.08984375 0.2196875 11.08984375 -1.8203125 11.08984375 C-2.01437728 9.44477157 -2.20039185 7.79874781 -2.3828125 6.15234375 C-2.48722656 5.23582031 -2.59164062 4.31929687 -2.69921875 3.375 C-2.73917969 2.62089844 -2.77914062 1.86679687 -2.8203125 1.08984375 C-1.8203125 0.08984375 -1.8203125 0.08984375 0 0 Z " fill="#5C7BD5" transform="translate(142.8203125,39.91015625)"/>
<path d="M0 0 C1.98 0 3.96 0 6 0 C7.125 6.75 7.125 6.75 6 9 C5.53259055 14.20166447 5.53259055 14.20166447 7.0625 19 C10.02087678 20.52690415 12.73716599 20.18468872 16 20 C16 23.63 16 27.26 16 31 C14.68 31.33 13.36 31.66 12 32 C11.01 31.34 10.02 30.68 9 30 C9 29.34 9 28.68 9 28 C7.9171875 28.2475 7.9171875 28.2475 6.8125 28.5 C4 28 4 28 2.58984375 26.5 C-2.84606562 18.38575628 -2.2002117 11.58788775 -0.47265625 2.34375 C-0.31667969 1.5703125 -0.16070312 0.796875 0 0 Z " fill="#0133C2" transform="translate(172,48)"/>
<path d="M0 0 C0.99 0 1.98 0 3 0 C3 3.3 3 6.6 3 10 C2.01 10.33 1.02 10.66 0 11 C-0.33 12.98 -0.66 14.96 -1 17 C-0.01 17 0.98 17 2 17 C3.38671875 18.53125 3.38671875 18.53125 4.6875 20.5 C5.12449219 21.1496875 5.56148438 21.799375 6.01171875 22.46875 C6.33785156 22.9740625 6.66398437 23.479375 7 24 C4.36 24 1.72 24 -1 24 C-0.34 25.98 0.32 27.96 1 30 C2.65 30.33 4.3 30.66 6 31 C6.33 30.01 6.66 29.02 7 28 C10.63 28 14.26 28 18 28 C16.98012628 33.6659651 15.23446941 36.23611942 10.8515625 39.93359375 C9 41 9 41 5 41 C3.5 38.75 3.5 38.75 2 36 C1.29875 35.38125 0.5975 34.7625 -0.125 34.125 C-4.48968337 29.17835885 -3.35607011 20.31500818 -3 14 C-2.67 13.34 -2.34 12.68 -2 12 C-1.68744353 9.14792222 -1.48962518 6.29503146 -1.28125 3.43359375 C-1 1 -1 1 0 0 Z " fill="#052C9C" transform="translate(364,40)"/>
<path d="M0 0 C6.6 0 13.2 0 20 0 C20 3.96 20 7.92 20 12 C13.4 12 6.8 12 0 12 C0 8.04 0 4.08 0 0 Z " fill="#002694" transform="translate(73,55)"/>
<path d="M0 0 C9.765625 -0.5859375 9.765625 -0.5859375 13 0 C17.05349573 4.30477279 17.52380054 7.90536384 17.4375 13.6875 C17.43621094 14.99074219 17.43492187 16.29398438 17.43359375 17.63671875 C17 21 17 21 15.47265625 22.95703125 C14.98667969 23.30121094 14.50070313 23.64539063 14 24 C13.01 23.67 12.02 23.34 11 23 C12.98 18.545 12.98 18.545 15 14 C10.05 13.67 5.1 13.34 0 13 C0 8.71 0 4.42 0 0 Z " fill="#000821" transform="translate(233,24)"/>
<path d="M0 0 C2.98798488 2.8502409 3.9348735 4.40800013 4.390625 8.55078125 C4.32101562 10.41283203 4.32101562 10.41283203 4.25 12.3125 C4.21390625 13.56675781 4.1778125 14.82101563 4.140625 16.11328125 C4.07101562 17.54220703 4.07101562 17.54220703 4 19 C2.56163249 18.88541307 1.12429034 18.75790884 -0.3125 18.625 C-1.11300781 18.55539063 -1.91351563 18.48578125 -2.73828125 18.4140625 C-5 18 -5 18 -8 16 C-8.1875 12.875 -8.1875 12.875 -8 10 C-8.99 9.67 -9.98 9.34 -11 9 C-11 6.36 -11 3.72 -11 1 C-7.21843183 -1.57146636 -4.31265475 -1.15517538 0 0 Z " fill="#6B88DA" transform="translate(340,41)"/>
<path d="M0 0 C8.3984375 -0.29296875 8.3984375 -0.29296875 11 0 C13.82406919 4.23610378 13.3302978 7.83267518 13.3125 12.8125 C13.32861328 13.70259766 13.34472656 14.59269531 13.36132812 15.50976562 C13.36523879 20.785247 12.88093462 24.40114659 10 29 C9.67 29 9.34 29 9 29 C9 24.05 9 19.1 9 14 C6.03 14 3.06 14 0 14 C0 9.38 0 4.76 0 0 Z " fill="#00071D" transform="translate(96,24)"/>
<path d="M0 0 C0.33 0 0.66 0 1 0 C1.02578125 0.75023437 1.0515625 1.50046875 1.078125 2.2734375 C1.48474074 9.61100331 2.8802371 15.37197541 6 22 C6.474375 23.175625 6.94875 24.35125 7.4375 25.5625 C8.76792978 28.23585359 8.76792978 28.23585359 11.5 28.6875 C12.325 28.790625 13.15 28.89375 14 29 C15.8125 30.4375 15.8125 30.4375 17 32 C17 32.66 17 33.32 17 34 C12.01783075 34.35446263 8.14605761 34.54177269 3.5625 32.375 C-1.27457232 27.8918598 -2.70496377 22.79575458 -3.203125 16.38671875 C-3.31121093 10.16277088 -2.57110477 5.67785637 0 0 Z " fill="#00207C" transform="translate(167,47)"/>
<path d="M0 0 C1.04716921 1.57075382 2.08952755 3.14564446 3.078125 4.75390625 C5.29241451 8.17129306 6.46946449 9.76976761 10.3125 11.4375 C11.6428125 11.7159375 11.6428125 11.7159375 13 12 C13 15.63 13 19.26 13 23 C8.71 23 4.42 23 0 23 C0 15.41 0 7.82 0 0 Z " fill="#002AA1" transform="translate(213,57)"/>
<path d="M0 0 C5.89284865 1.0986667 9.22562592 2.03939407 13 7 C14.21467261 9.63995378 15.10584511 12.22341375 16 15 C12.67692308 18.93846154 12.67692308 18.93846154 9.25 19.25 C8.5075 19.1675 7.765 19.085 7 19 C6.5875 17.9275 6.175 16.855 5.75 15.75 C4.64745129 13.10704831 4.01506601 12.01334418 1.8125 10.0625 C-0.3185852 7.63747201 -0.25547903 6.8785261 -0.25 3.75 C-0.1675 2.5125 -0.085 1.275 0 0 Z " fill="#5071CE" transform="translate(290,40)"/>
<path d="M0 0 C4.95 0 9.9 0 15 0 C14.09789442 4.51052789 12.88930512 7.70125091 10.9375 11.8125 C10.38964844 12.97394531 9.84179688 14.13539062 9.27734375 15.33203125 C8.85582031 16.21246094 8.43429687 17.09289062 8 18 C7.01 17.67 6.02 17.34 5 17 C4.32060826 15.00428677 3.65438441 13.00405227 3 11 C2.01 10.34 1.02 9.68 0 9 C-0.41137202 5.96133201 -0.13193156 3.07840297 0 0 Z " fill="#8A98C0" transform="translate(254,24)"/>
<path d="M0 0 C0.8971875 0.99 0.8971875 0.99 1.8125 2 C3.87501834 4.3373846 3.87501834 4.3373846 7 4 C7.33 3.01 7.66 2.02 8 1 C11.63 1 15.26 1 19 1 C18.00649781 6.5194566 16.3751149 9.40786593 11.953125 12.91015625 C8.9489595 14.5864806 6.34000383 14.40898006 3 14 C0.96006486 9.07015675 -0.40652968 5.42039575 0 0 Z " fill="#002FB5" transform="translate(140,67)"/>
<path d="M0 0 C0.66 0 1.32 0 2 0 C3.5883272 4.1693589 4.30442659 7.53507661 4 12 C3.67 12.66 3.34 13.32 3 14 C2.87823497 15.80948495 2.82454208 17.62396271 2.8125 19.4375 C2.79832031 20.40558594 2.78414063 21.37367187 2.76953125 22.37109375 C2.80850549 25.23266727 2.80850549 25.23266727 5 28 C5.99 28.33 6.98 28.66 8 29 C8 30.32 8 31.64 8 33 C8.66 33 9.32 33 10 33 C10.04241723 35.33294775 10.04092937 37.66702567 10 40 C9 41 9 41 6.4375 41.0625 C5.633125 41.041875 4.82875 41.02125 4 41 C4.0825 40.2575 4.165 39.515 4.25 38.75 C4.31034655 35.88958277 4.31034655 35.88958277 2.125 34.375 C-1.2850603 30.56375613 -1.29274549 25.9367765 -2 21 C-2.24363281 20.14277344 -2.48726563 19.28554688 -2.73828125 18.40234375 C-3.08690152 15.20232182 -1.89749766 14.50488525 0 12 C0.36157879 8.9522555 0.36157879 8.9522555 0.1875 5.75 C0.16042969 4.67234375 0.13335937 3.5946875 0.10546875 2.484375 C0.07066406 1.66453125 0.03585937 0.8446875 0 0 Z " fill="#00217F" transform="translate(283,41)"/>
<path d="M0 0 C1.32 0 2.64 0 4 0 C4.33865141 2.99948391 4.67105073 5.99944926 5 9 C5.09539062 9.83917969 5.19078125 10.67835937 5.2890625 11.54296875 C5.85214909 16.73140945 6.09664316 21.78126961 6 27 C5.34 27 4.68 27 4 27 C3.814375 28.175625 3.814375 28.175625 3.625 29.375 C3 32 3 32 1 34 C-0.66114378 41.25125371 0.18382291 48.69207591 1 56 C0.01 56 -0.98 56 -2 56 C-2.11662261 51.95857785 -2.1873935 47.91759135 -2.25 43.875 C-2.28351563 42.73289063 -2.31703125 41.59078125 -2.3515625 40.4140625 C-2.42796811 33.84317993 -2.1161693 30.34141035 2 25 C2.55252751 21.74747536 2.55252751 21.74747536 2.375 18.4375 C2.35566406 16.79587891 2.35566406 16.79587891 2.3359375 15.12109375 C2.00375987 12.03493181 1.19565364 9.83730507 0 7 C-0.07646165 4.6679198 -0.09143299 2.33154122 0 0 Z " fill="#011E73" transform="translate(110,24)"/>
<path d="M0 0 C0.66 0.33 1.32 0.66 2 1 C-0.31 6.28 -2.62 11.56 -5 17 C-0.38 17 4.24 17 9 17 C8 21 8 21 6 23 C1.27590216 23.54210959 -0.90996287 23.6585641 -5 21.1875 C-7.9316952 16.51511078 -7.86557178 12.37441387 -7 7 C-5.95188388 4.37970969 -4.95812644 3.12596585 -3 1 C-2.01 0.67 -1.02 0.34 0 0 Z " fill="#456DDE" transform="translate(256,51)"/>
<path d="M0 0 C0 4.62 0 9.24 0 14 C-7.40256709 14.48541424 -7.40256709 14.48541424 -10 12.375 C-11.28292178 9.32806078 -11.40995912 7.27967299 -11 4 C-8.7771202 -1.27933953 -5.04466178 -0.33079749 0 0 Z " fill="#8694BC" transform="translate(127,24)"/>
<path d="M0 0 C3.40908829 1.41065722 5.01882892 2.89903657 7 6 C7.73046875 8.578125 7.73046875 8.578125 8.1875 11.25 C8.34605469 12.14203125 8.50460937 13.0340625 8.66796875 13.953125 C8.77753906 14.62859375 8.88710938 15.3040625 9 16 C4.97340604 16.92604802 2.06279475 16.85035239 -2 16 C-2.05423638 14.08364783 -2.09289963 12.16685075 -2.125 10.25 C-2.14820313 9.18265625 -2.17140625 8.1153125 -2.1953125 7.015625 C-2.00487687 4.07529894 -1.52670104 2.47638122 0 0 Z " fill="#8CAEFE" transform="translate(374,43)"/>
<path d="M0 0 C2.33944736 0.28730055 4.6739143 0.61936779 7 1 C7.33808686 3.06172613 7.67027361 5.1244203 8 7.1875 C8.185625 8.33605469 8.37125 9.48460937 8.5625 10.66796875 C9 14 9 14 9 19 C12.3 18.34 15.6 17.68 19 17 C18.34 18.32 17.68 19.64 17 21 C15.41705218 21.05437607 13.83355744 21.09296271 12.25 21.125 C11.36828125 21.14820312 10.4865625 21.17140625 9.578125 21.1953125 C6.8864142 20.99139502 5.30095026 20.36551721 3 19 C3 18.34 3 17.68 3 17 C4.32 17 5.64 17 7 17 C6.67 15.02 6.34 13.04 6 11 C4.02 11 2.04 11 0 11 C-0.19406478 9.35492782 -0.38007935 7.70890406 -0.5625 6.0625 C-0.66691406 5.14597656 -0.77132812 4.22945312 -0.87890625 3.28515625 C-0.91886719 2.53105469 -0.95882812 1.77695312 -1 1 C-0.67 0.67 -0.34 0.34 0 0 Z " fill="#4C67B2" transform="translate(141,40)"/>
<path d="M0 0 C0.26554688 0.77085938 0.53109375 1.54171875 0.8046875 2.3359375 C1.15789062 3.33882812 1.51109375 4.34171875 1.875 5.375 C2.22304687 6.37273438 2.57109375 7.37046875 2.9296875 8.3984375 C3.84782502 11.10442118 3.84782502 11.10442118 6 13 C6 13.99 6 14.98 6 16 C6.99 16 7.98 16 9 16 C9 16.66 9 17.32 9 18 C9.99 17.67 10.98 17.34 12 17 C12 19.31 12 21.62 12 24 C9.27251079 23.91977973 7.51685023 23.46661926 5.47265625 21.62109375 C0.27509453 15.70936324 -3.12402783 9.6602197 -5 2 C-2 0 -2 0 0 0 Z " fill="#678BF0" transform="translate(214,41)"/>
<path d="M0 0 C0.98275588 2.94826763 1.13414725 4.92652504 1.125 8 C1.12757813 8.86625 1.13015625 9.7325 1.1328125 10.625 C1 13 1 13 0 16 C1.32 16 2.64 16 4 16 C4.33 16.66 4.66 17.32 5 18 C7.96349281 18.98783094 9.9712663 19.13410525 13.0625 19.125 C14.37927734 19.12886719 14.37927734 19.12886719 15.72265625 19.1328125 C18.03198266 19.14833424 18.03198266 19.14833424 20 18 C20 19.65 20 21.3 20 23 C13.4 23 6.8 23 0 23 C-1.25433458 19.23699626 -1.10695422 15.72789091 -1.0625 11.8125 C-1.05798828 11.06291016 -1.05347656 10.31332031 -1.04882812 9.54101562 C-1.03706354 7.69397617 -1.01912865 5.84697787 -1 4 C-2.98 4 -4.96 4 -7 4 C-3.17391304 0 -3.17391304 0 0 0 Z " fill="#012BA2" transform="translate(140,41)"/>
<path d="M0 0 C0.33 0 0.66 0 1 0 C1.01417969 0.66386719 1.02835938 1.32773437 1.04296875 2.01171875 C1.28488568 6.49045112 1.55145843 9.32039156 4.0625 13.125 C8.18270704 15.75491939 10.17326125 15.77850625 15 15 C16.8624438 12.59141286 16.8624438 12.59141286 18 10 C18.99 10 19.98 10 21 10 C21.05399736 11.45792884 21.09279177 12.91642712 21.125 14.375 C21.14820313 15.18710938 21.17140625 15.99921875 21.1953125 16.8359375 C21 19 21 19 19 21 C12.20261874 21.33817817 6.37249336 20.20456002 1 16 C-0.0705329 12.39236601 -0.10760709 8.93138863 -0.0625 5.1875 C-0.05347656 4.21167969 -0.04445312 3.23585937 -0.03515625 2.23046875 C-0.02355469 1.49441406 -0.01195312 0.75835937 0 0 Z " fill="#0436C5" transform="translate(247,58)"/>
<path d="M0 0 C1.32 0 2.64 0 4 0 C4.02578125 0.69867188 4.0515625 1.39734375 4.078125 2.1171875 C4.13484375 3.02726562 4.1915625 3.93734375 4.25 4.875 C4.29640625 5.77992187 4.3428125 6.68484375 4.390625 7.6171875 C4.69226563 8.79667969 4.69226563 8.79667969 5 10 C6.94171343 11.15837127 6.94171343 11.15837127 9 12 C10.25 15.125 10.25 15.125 11 18 C12.65 18.33 14.3 18.66 16 19 C16.33 18.01 16.66 17.02 17 16 C17.99 15.67 18.98 15.34 20 15 C20 16.98 20 18.96 20 21 C15.71 21 11.42 21 7 21 C6.34 18.36 5.68 15.72 5 13 C3.68 13 2.36 13 1 13 C-1.42857143 4.57142857 -1.42857143 4.57142857 0 0 Z " fill="#2850C2" transform="translate(286,40)"/>
<path d="M0 0 C0.99 1.485 0.99 1.485 2 3 C2.99 2.34 3.98 1.68 5 1 C5.1953125 3.05078125 5.390625 5.1015625 5.5859375 7.15234375 C5.72257812 7.76207031 5.85921875 8.37179688 6 9 C6.66 9.33 7.32 9.66 8 10 C8 11.98 8 13.96 8 16 C11.96 16.99 15.92 17.98 20 19 C19.67 20.32 19.34 21.64 19 23 C17.37247769 22.74476126 15.74796804 22.47025506 14.125 22.1875 C13.22007812 22.03667969 12.31515625 21.88585937 11.3828125 21.73046875 C9 21 9 21 7 18 C6.61500109 16.34450469 6.27206865 14.6777567 6 13 C4.35 13 2.7 13 1 13 C-0.10228696 8.59085217 -0.07654536 4.51617599 0 0 Z " fill="#1B44BC" transform="translate(324,41)"/>
<path d="M0 0 C1.65 0 3.3 0 5 0 C7.52353907 7.37101524 9.21627741 14.32827051 7 22 C5.22792726 24.81574748 3.77231155 25.98871515 1 28 C-0.32 28 -1.64 28 -3 28 C-2.8125 26.1875 -2.8125 26.1875 -2 24 C-0.75283203 23.41605469 -0.75283203 23.41605469 0.51953125 22.8203125 C3.36975427 21.16820988 3.36975427 21.16820988 3.59375 17.63671875 C3.5628125 16.33347656 3.531875 15.03023437 3.5 13.6875 C3.4896875 12.39199219 3.479375 11.09648438 3.46875 9.76171875 C2.98529003 5.88195253 1.95583359 3.35508688 0 0 Z " fill="#00144C" transform="translate(246,24)"/>
<path d="M0 0 C-0.99 0.33 -1.98 0.66 -3 1 C-3.36285574 4.00651898 -3.60807464 6.08543537 -3 9 C-0.24276544 12.4094836 3.38301681 14.58867788 7 17 C7 17.66 7 18.32 7 19 C5.56163249 18.88541307 4.12429034 18.75790884 2.6875 18.625 C1.88699219 18.55539063 1.08648437 18.48578125 0.26171875 18.4140625 C-2 18 -2 18 -5 16 C-5.1875 12.875 -5.1875 12.875 -5 10 C-5.99 9.67 -6.98 9.34 -8 9 C-8 6.36 -8 3.72 -8 1 C-4.93251126 -0.86240388 -3.40254489 -1.2151946 0 0 Z " fill="#486DD4" transform="translate(337,41)"/>
<path d="M0 0 C1.98 0 3.96 0 6 0 C7.24327778 5.84340558 6.57300962 10.26696495 5 16 C0.125 13.125 0.125 13.125 -1 12 C-1.16017882 7.83535074 -0.98248196 4.05273808 0 0 Z " fill="#3B60CC" transform="translate(172,48)"/>
<path d="M0 0 C0.33 0.66 0.66 1.32 1 2 C1.639375 2.28875 2.27875 2.5775 2.9375 2.875 C5.42001234 4.22909764 5.96871397 5.42178493 7 8 C6.01 8.33 5.02 8.66 4 9 C3.67 17.58 3.34 26.16 3 35 C2.34 35 1.68 35 1 35 C-0.19388403 10.01734161 -0.19388403 10.01734161 0 0 Z " fill="#042482" transform="translate(204,45)"/>
<path d="M0 0 C1.65 0 3.3 0 5 0 C4.67 0.53625 4.34 1.0725 4 1.625 C2.74058838 4.6161026 2.73144165 6.77729983 3 10 C3.33563965 10.60553711 3.6712793 11.21107422 4.01708984 11.83496094 C5.27900606 14.61456179 5.13822758 16.60132156 4.9765625 19.640625 C4.89921875 21.24550781 4.89921875 21.24550781 4.8203125 22.8828125 C4.75585938 23.99398437 4.69140625 25.10515625 4.625 26.25 C4.56828125 27.37664063 4.5115625 28.50328125 4.453125 29.6640625 C4.31180452 32.44336528 4.16040592 35.2217441 4 38 C1.05158718 35.05158718 1.57482045 31.77469743 1.4375 27.8125 C1.26649538 23.6174293 1.07345264 19.51197586 0.4765625 15.3515625 C0.00491861 12.03459152 -0.10010303 8.90916945 -0.0625 5.5625 C-0.05347656 4.51191406 -0.04445313 3.46132813 -0.03515625 2.37890625 C-0.02355469 1.59386719 -0.01195313 0.80882813 0 0 Z " fill="#2F4EA6" transform="translate(114,24)"/>
<path d="M0 0 C0.33 0 0.66 0 1 0 C1.0825 1.11375 1.165 2.2275 1.25 3.375 C1.90324123 8.63825787 3.86839508 13.18176851 6 18 C6.474375 19.175625 6.94875 20.35125 7.4375 21.5625 C8.76792978 24.23585359 8.76792978 24.23585359 11.5 24.6875 C12.325 24.790625 13.15 24.89375 14 25 C15.8125 26.4375 15.8125 26.4375 17 28 C17 28.66 17 29.32 17 30 C14.25 30.3125 14.25 30.3125 11 30 C8.8125 27.625 8.8125 27.625 7 25 C6.01 24.34 5.02 23.68 4 23 C-0.39817699 15.55693124 -0.1344006 8.39257049 0 0 Z " fill="#00258F" transform="translate(167,51)"/>
<path d="M0 0 C1.98 0 3.96 0 6 0 C7.1577506 3.47325181 7.06866652 6.36067448 7 10 C7.66 10 8.32 10 9 10 C9 10.66 9 11.32 9 12 C6.03 12 3.06 12 0 12 C0 8.04 0 4.08 0 0 Z " fill="#001A66" transform="translate(73,55)"/>
<path d="M0 0 C4.81449408 0.48144941 7.60171741 0.8008587 12 3 C12 6.63 12 10.26 12 14 C9.69 13.67 7.38 13.34 5 13 C4.67 11.35 4.34 9.7 4 8 C4.99 8 5.98 8 7 8 C7 6.35 7 4.7 7 3 C4.69 2.67 2.38 2.34 0 2 C0 1.34 0 0.68 0 0 Z " fill="#0D2C86" transform="translate(176,40)"/>
<path d="M0 0 C2.31 0 4.62 0 7 0 C6.01 1.485 6.01 1.485 5 3 C4.97250522 5.06910593 4.97250522 5.06910593 5.375 7.1875 C5.58125 8.445625 5.7875 9.70375 6 11 C6.66 11 7.32 11 8 11 C8.33 12.98 8.66 14.96 9 17 C7.68 17 6.36 17 5 17 C4.731875 16.05125 4.46375 15.1025 4.1875 14.125 C3.25013412 10.74732727 3.25013412 10.74732727 0 9 C-0.29296875 6.8359375 -0.29296875 6.8359375 -0.1875 4.375 C-0.16042969 3.55773437 -0.13335937 2.74046875 -0.10546875 1.8984375 C-0.05326172 0.95871094 -0.05326172 0.95871094 0 0 Z " fill="#6E7FB2" transform="translate(254,24)"/>
<path d="M0 0 C0.99 0 1.98 0 3 0 C4.98401906 7.84750396 6.96470007 17.49513283 4.171875 25.3203125 C3 27 3 27 0 28 C0.24363281 27.07574219 0.24363281 27.07574219 0.4921875 26.1328125 C1.20960738 21.70688367 1.14426467 17.35082411 1.125 12.875 C1.12886719 11.96878906 1.13273437 11.06257813 1.13671875 10.12890625 C1.13542969 9.25878906 1.13414063 8.38867188 1.1328125 7.4921875 C1.13168457 6.70183105 1.13055664 5.91147461 1.12939453 5.09716797 C1.07828379 2.80617599 1.07828379 2.80617599 0 0 Z " fill="#031444" transform="translate(107,24)"/>
<path d="M0 0 C0.33 0 0.66 0 1 0 C1.07476562 1.12019531 1.14953125 2.24039063 1.2265625 3.39453125 C1.35789401 4.86732031 1.49078838 6.3399706 1.625 7.8125 C1.69267578 8.91948242 1.69267578 8.91948242 1.76171875 10.04882812 C1.94725448 12.50958336 1.94725448 12.50958336 3 16 C6.74088083 18.69579234 10.20473381 19.42354442 14.75 19.75 C16.16539062 19.86601563 16.16539062 19.86601563 17.609375 19.984375 C20.01628909 20.18062622 20.01628909 20.18062622 22 19 C22 19.99 22 20.98 22 22 C15.73 22 9.46 22 3 22 C0.61632718 16.43809675 -0.4080711 13.83590232 -0.75 8.1875 C-0.82734375 7.06730469 -0.9046875 5.94710937 -0.984375 4.79296875 C-1 2 -1 2 0 0 Z " fill="#002591" transform="translate(246,58)"/>
<path d="M0 0 C0.53625 0.5775 1.0725 1.155 1.625 1.75 C3.98167563 4.15760022 3.98167563 4.15760022 7.25 5.875 C8.1575 6.57625 9.065 7.2775 10 8 C10.375 11.25 10.375 11.25 10 14 C7.69 14 5.38 14 3 14 C0.96006486 9.07015675 -0.40652968 5.42039575 0 0 Z " fill="#0029A0" transform="translate(140,67)"/>
<path d="M0 0 C3.63 0 7.26 0 11 0 C9.52307692 6.52307692 9.52307692 6.52307692 6.875 8.9375 C6.25625 9.288125 5.6375 9.63875 5 10 C0 4.5 0 4.5 0 0 Z " fill="#5284FF" transform="translate(371,68)"/>
<path d="M0 0 C1.32 0 2.64 0 4 0 C4 6.6 4 13.2 4 20 C3.34 18.68 2.68 17.36 2 16 C1.34 16 0.68 16 0 16 C0 10.72 0 5.44 0 0 Z " fill="#6B79A1" transform="translate(203,21)"/>
<path d="M0 0 C2.875 -0.125 2.875 -0.125 6 0 C8.76223278 2.76223278 8.57856291 5.20706617 9 9 C8.01 9.495 8.01 9.495 7 10 C6.67 8.02 6.34 6.04 6 4 C4.02 4 2.04 4 0 4 C-0.33 7.96 -0.66 11.92 -1 16 C-1.66 16 -2.32 16 -3 16 C-3.32712342 9.86946489 -3.39366878 5.37330889 0 0 Z " fill="#274498" transform="translate(172,44)"/>
<path d="M0 0 C2.64 0.66 5.28 1.32 8 2 C7.690625 2.639375 7.38125 3.27875 7.0625 3.9375 C5.68064597 7.92049104 5.3463457 11.81650849 5 16 C4.34 15.34 3.68 14.68 3 14 C3 13.01 3 12.02 3 11 C2.01 10.67 1.02 10.34 0 10 C0 6.7 0 3.4 0 0 Z " fill="#6885D8" transform="translate(367,40)"/>
<path d="M0 0 C1.32 0 2.64 0 4 0 C4.30341425 2.0788382 4.5666325 4.163573 4.8125 6.25 C5.03873047 7.99023438 5.03873047 7.99023438 5.26953125 9.765625 C5.18058594 10.83296875 5.09164062 11.9003125 5 13 C3.35 14.32 1.7 15.64 0 17 C0 11.39 0 5.78 0 0 Z " fill="#000B2A" transform="translate(194,21)"/>
<path d="M0 0 C3.77547832 1.25849277 4.02107596 2.39025643 5.875 5.8125 C8.78510799 10.86727815 11.32872128 14.10957376 17 16 C16.67 17.32 16.34 18.64 16 20 C11.98146158 19.15891056 9.71592101 18.08056637 7.3125 14.8125 C5.0679701 11.35937708 3.51487851 7.82326482 2 4 C1.34711373 2.65986503 0.68774405 1.32258472 0 0 Z " fill="#224CC5" transform="translate(209,49)"/>
<path d="M0 0 C3.2065204 3.32103899 4.46340358 6.28848081 5.75 10.625 C7.03503742 14.63156452 7.03503742 14.63156452 10.03125 17.37890625 C12.46618723 18.32312742 12.46618723 18.32312742 16 19 C16 20.32 16 21.64 16 23 C13.27251079 22.91977973 11.51685023 22.46661926 9.47265625 20.62109375 C4.27509453 14.70936324 0.87597217 8.6602197 -1 1 C-0.67 0.67 -0.34 0.34 0 0 Z " fill="#4871E7" transform="translate(210,42)"/>
<path d="M0 0 C0.33 0 0.66 0 1 0 C1.06058594 0.62648437 1.12117188 1.25296875 1.18359375 1.8984375 C1.26738281 2.71570312 1.35117188 3.53296875 1.4375 4.375 C1.51871094 5.18710937 1.59992188 5.99921875 1.68359375 6.8359375 C1.89090114 9.04272805 1.89090114 9.04272805 3 11 C3.08308638 12.37548156 3.10736016 13.75485796 3.09765625 15.1328125 C3.09282227 16.34130859 3.09282227 16.34130859 3.08789062 17.57421875 C3.07951172 18.41597656 3.07113281 19.25773437 3.0625 20.125 C3.05798828 20.97449219 3.05347656 21.82398437 3.04882812 22.69921875 C3.03702874 24.79950909 3.01909306 26.8997633 3 29 C2.34 29 1.68 29 1 29 C-0.30433619 23.06372979 -0.11086318 17.16667748 -0.0625 11.125 C-0.05798828 10.05507813 -0.05347656 8.98515625 -0.04882812 7.8828125 C-0.03709749 5.25515014 -0.02068228 2.62760462 0 0 Z " fill="#0530AC" transform="translate(115,51)"/>
<path d="M0 0 C3.96 0 7.92 0 12 0 C11 4 11 4 9 6 C6.0625 6.375 6.0625 6.375 3 6 C1.125 4.125 1.125 4.125 0 2 C0 1.34 0 0.68 0 0 Z " fill="#173EAF" transform="translate(80,55)"/>
<path d="M0 0 C1.32 0 2.64 0 4 0 C4.33865141 2.99948391 4.67105073 5.99944926 5 9 C5.09539062 9.83917969 5.19078125 10.67835937 5.2890625 11.54296875 C5.85214909 16.73140945 6.09664316 21.78126961 6 27 C5.67 27 5.34 27 5 27 C4.89042969 26.14277344 4.78085938 25.28554688 4.66796875 24.40234375 C3.77535916 17.05865821 3.77535916 17.05865821 1.375 10.125 C-0.20490419 6.53430865 -0.23761175 3.88099189 0 0 Z " fill="#304172" transform="translate(110,24)"/>
<path d="M0 0 C1.10673834 0.76713644 2.21027694 1.53889003 3.3125 2.3125 C4.23482422 2.95638672 4.23482422 2.95638672 5.17578125 3.61328125 C7 5 7 5 8.5 6.65625 C10.12314317 8.39356482 10.12314317 8.39356482 13.6875 8.1875 C14.780625 8.125625 15.87375 8.06375 17 8 C16.67 8.99 16.34 9.98 16 11 C5.94416691 10.80928592 5.94416691 10.80928592 2.375 7.75 C1.04903072 5.09806144 0.33565584 2.93698863 0 0 Z " fill="#0F40CC" transform="translate(171,60)"/>
<path d="M0 0 C1.10868109 3.32604328 1.06504234 5.75397414 1 9.25 C0.95777836 13.97354625 1.13706484 18.36172349 2 23 C1.34 23 0.68 23 0 23 C-1.25433458 19.23699626 -1.10695422 15.72789091 -1.0625 11.8125 C-1.05798828 11.06291016 -1.05347656 10.31332031 -1.04882812 9.54101562 C-1.03706354 7.69397617 -1.01912865 5.84697787 -1 4 C-2.98 4 -4.96 4 -7 4 C-3.17391304 0 -3.17391304 0 0 0 Z " fill="#022483" transform="translate(140,41)"/>
<path d="M0 0 C2.95415672 1.4427277 5.82817489 2.89363208 8.625 4.625 C10.80836414 5.88905293 12.53840795 6.54414962 15 7 C15 7.99 15 8.98 15 10 C13.1875 10.625 13.1875 10.625 11 11 C10.01 10.34 9.02 9.68 8 9 C8 8.34 8 7.68 8 7 C6.8553125 7.1546875 6.8553125 7.1546875 5.6875 7.3125 C4.800625 7.209375 3.91375 7.10625 3 7 C1.18116991 4.6167054 0 3.04181663 0 0 Z " fill="#002BA9" transform="translate(173,69)"/>
<path d="M0 0 C0.66 0.99 1.32 1.98 2 3 C3.0828125 4.2375 3.0828125 4.2375 4.1875 5.5 C5.0846875 6.7375 5.0846875 6.7375 6 8 C5.67 8.99 5.34 9.98 5 11 C3.35 11.33 1.7 11.66 0 12 C-0.71614583 10.27473958 -1.43229167 8.54947917 -2.1484375 6.82421875 C-3.06806692 4.73466068 -3.06806692 4.73466068 -5 2 C-3.35 2 -1.7 2 0 2 C0 1.34 0 0.68 0 0 Z " fill="#002CAC" transform="translate(370,69)"/>
<path d="M0 0 C0.66 0 1.32 0 2 0 C3.5883272 4.1693589 4.30442659 7.53507661 4 12 C3.67 12.66 3.34 13.32 3 14 C2.34 14 1.68 14 1 14 C0.67 17.63 0.34 21.26 0 25 C-2.73529412 19.52941176 -2.73529412 19.52941176 -3 16 C-2.51273437 15.41734375 -2.02546875 14.8346875 -1.5234375 14.234375 C0.49783279 11.26984524 0.30323326 9.29915333 0.1875 5.75 C0.16042969 4.67234375 0.13335937 3.5946875 0.10546875 2.484375 C0.07066406 1.66453125 0.03585937 0.8446875 0 0 Z " fill="#032075" transform="translate(283,41)"/>
<path d="M0 0 C0.99 0 1.98 0 3 0 C3.03738281 0.62648438 3.07476562 1.25296875 3.11328125 1.8984375 C3.17902344 2.71570313 3.24476563 3.53296875 3.3125 4.375 C3.37050781 5.18710937 3.42851562 5.99921875 3.48828125 6.8359375 C3.82990528 9.37921338 3.82990528 9.37921338 7 11 C7.70381157 12.98723268 8.3711811 14.98777953 9 17 C9.66 17.66 10.32 18.32 11 19 C10.01 19.33 9.02 19.66 8 20 C4 14.375 4 14.375 4 11 C3.34 11 2.68 11 2 11 C0.57741188 7.17679443 -0.24042276 4.08718695 0 0 Z " fill="#48557D" transform="translate(251,24)"/>
<path d="M0 0 C1.32 0 2.64 0 4 0 C4 3.96 4 7.92 4 12 C3.01 12.33 2.02 12.66 1 13 C-1.42857143 4.57142857 -1.42857143 4.57142857 0 0 Z " fill="#324E9E" transform="translate(286,40)"/>
<path d="M0 0 C0.66 0 1.32 0 2 0 C2.25523437 0.87011719 2.25523437 0.87011719 2.515625 1.7578125 C3.71951002 5.6384206 4.84511987 9.06828982 7.25 12.375 C7.8275 13.24125 8.405 14.1075 9 15 C8.67 15.99 8.34 16.98 8 18 C3.25025516 14.02048406 1.33033224 10.04598148 0 4 C0 2.68 0 1.36 0 0 Z " fill="#001A64" transform="translate(164,62)"/>
<path d="M0 0 C0.33 0 0.66 0 1 0 C1.25247425 4.54453646 1.25247425 4.54453646 0.0234375 6.76171875 C-1.74590975 10.6313217 -1.46557085 14.80419794 -1.65625 19.00390625 C-2 22 -2 22 -4 25 C-4.82726936 18.78911618 -5.2978562 13.16481694 -4 7 C-2.5 5.25 -2.5 5.25 -1 4 C-0.28552357 1.89667109 -0.28552357 1.89667109 0 0 Z " fill="#002386" transform="translate(114,51)"/>
<path d="M0 0 C0.99 1.485 0.99 1.485 2 3 C2.99 2.34 3.98 1.68 5 1 C5 4.63 5 8.26 5 12 C3.68 12.33 2.36 12.66 1 13 C-0.10228696 8.59085217 -0.07654536 4.51617599 0 0 Z " fill="#223F94" transform="translate(324,41)"/>
<path d="M0 0 C0.99 0 1.98 0 3 0 C3.13277344 1.22976562 3.26554688 2.45953125 3.40234375 3.7265625 C3.58064043 5.35938469 3.7590308 6.99219666 3.9375 8.625 C4.02451172 9.43324219 4.11152344 10.24148437 4.20117188 11.07421875 C4.67709537 15.41041058 5.22837189 19.70390836 6 24 C3.32132393 21.32132393 2.80419363 18.3744089 1.875 14.8125 C1.69324219 14.16474609 1.51148438 13.51699219 1.32421875 12.84960938 C0.16186595 8.47549225 -0.17561531 4.51331346 0 0 Z " fill="#1F2E59" transform="translate(198,21)"/>
<path d="M0 0 C-0.99 0.33 -1.98 0.66 -3 1 C-3.020625 2.27875 -3.04125 3.5575 -3.0625 4.875 C-3.07410156 5.59429687 -3.08570313 6.31359375 -3.09765625 7.0546875 C-3.12649242 9.08185404 -3.12649242 9.08185404 -2 11 C-3.98 10.34 -5.96 9.68 -8 9 C-8 6.36 -8 3.72 -8 1 C-4.93251126 -0.86240388 -3.40254489 -1.2151946 0 0 Z " fill="#506CBB" transform="translate(337,41)"/>
<path d="M0 0 C0.99 0 1.98 0 3 0 C3 3.3 3 6.6 3 10 C2.01 10.33 1.02 10.66 0 11 C-0.33 11.99 -0.66 12.98 -1 14 C-1.02685938 11.85423363 -1.04633088 9.70837355 -1.0625 7.5625 C-1.07410156 6.36753906 -1.08570313 5.17257813 -1.09765625 3.94140625 C-1 1 -1 1 0 0 Z " fill="#254090" transform="translate(364,40)"/>
<path d="M0 0 C1.65 0 3.3 0 5 0 C4.67 0.53625 4.34 1.0725 4 1.625 C2.74058838 4.6161026 2.73144165 6.77729983 3 10 C3.350625 10.66 3.70125 11.32 4.0625 12 C5.40931964 14.87321524 4.68598023 16.98168698 4 20 C1.24072656 17.24072656 1.48216757 14.78845948 1 11 C0.67 10.67 0.34 10.34 0 10 C-0.07205511 8.31391034 -0.08386068 6.62499341 -0.0625 4.9375 C-0.05347656 4.01839844 -0.04445313 3.09929688 -0.03515625 2.15234375 C-0.02355469 1.44207031 -0.01195313 0.73179688 0 0 Z " fill="#5F6F9C" transform="translate(114,24)"/>
<path d="M0 0 C4.29 0 8.58 0 13 0 C12.34 1.32 11.68 2.64 11 4 C7.7 3.67 4.4 3.34 1 3 C0.67 2.01 0.34 1.02 0 0 Z " fill="#4879FC" transform="translate(251,68)"/>
<path d="M0 0 C0.99 0.33 1.98 0.66 3 1 C2.01 2.485 2.01 2.485 1 4 C0.75812349 6.74518321 0.75812349 6.74518321 0.875 9.6875 C0.89304687 10.68136719 0.91109375 11.67523438 0.9296875 12.69921875 C0.95289063 13.45847656 0.97609375 14.21773437 1 15 C1.66 15.33 2.32 15.66 3 16 C1.35 16 -0.3 16 -2 16 C-2.05423638 14.08364783 -2.09289963 12.16685075 -2.125 10.25 C-2.14820313 9.18265625 -2.17140625 8.1153125 -2.1953125 7.015625 C-2.00487687 4.07529894 -1.52670104 2.47638122 0 0 Z " fill="#7C9DF7" transform="translate(374,43)"/>
<path d="M0 0 C0.33 0 0.66 0 1 0 C1.0809723 2.43816585 1.14046972 4.87364384 1.1875 7.3125 C1.22520508 8.34793945 1.22520508 8.34793945 1.26367188 9.40429688 C1.33834499 14.55674183 1.33834499 14.55674183 -0.51171875 16.98046875 C-1.00285156 17.31691406 -1.49398437 17.65335938 -2 18 C-2.99 17.67 -3.98 17.34 -5 17 C-4.72285156 16.35933594 -4.44570312 15.71867187 -4.16015625 15.05859375 C-2.03428818 9.98223263 -0.47725914 5.48848012 0 0 Z " fill="#000D34" transform="translate(249,30)"/>
<path d="M0 0 C0.33 0 0.66 0 1 0 C2.17293889 6.3778552 3.29530838 12.50321562 3 19 C2.01 19 1.02 19 0 19 C0 12.73 0 6.46 0 0 Z " fill="#002388" transform="translate(213,61)"/>
<path d="M0 0 C0.33 0 0.66 0 1 0 C1.02689216 1.47906892 1.04634621 2.95827483 1.0625 4.4375 C1.07410156 5.26121094 1.08570312 6.08492187 1.09765625 6.93359375 C1 9 1 9 0 10 C-1.99958364 10.04080783 -4.00045254 10.04254356 -6 10 C-5.67 9.01 -5.34 8.02 -5 7 C-5.99 6.67 -6.98 6.34 -8 6 C-7.05125 5.7525 -6.1025 5.505 -5.125 5.25 C-1.91306809 4.3142923 -1.91306809 4.3142923 -0.625 1.875 C-0.41875 1.25625 -0.2125 0.6375 0 0 Z " fill="#00299D" transform="translate(92,55)"/>
<path d="M0 0 C0.73605469 0.08378906 1.47210938 0.16757812 2.23046875 0.25390625 C3.20628906 0.35574219 4.18210938 0.45757812 5.1875 0.5625 C6.15042969 0.66691406 7.11335937 0.77132812 8.10546875 0.87890625 C10.94233377 0.99758751 13.25423671 0.67765639 16 0 C15.34 1.32 14.68 2.64 14 4 C12.41705218 4.05437607 10.83355744 4.09296271 9.25 4.125 C8.36828125 4.14820313 7.4865625 4.17140625 6.578125 4.1953125 C3.8864142 3.99139502 2.30095026 3.36551721 0 2 C0 1.34 0 0.68 0 0 Z " fill="#274FC3" transform="translate(144,57)"/>
<path d="M0 0 C0.33 0 0.66 0 1 0 C2.31100153 5.06920592 2.31100153 5.06920592 2 8 C0.03540072 10.54567794 -2.33066655 12.23913718 -5 14 C-5.99 14.66 -6.98 15.32 -8 16 C-10.1875 15.625 -10.1875 15.625 -12 15 C-10 13 -10 13 -7.625 12.125 C-4.54182549 10.8036395 -3.02721629 9.67882153 -1 7 C-0.19234122 3.35278304 -0.19234122 3.35278304 0 0 Z " fill="#001961" transform="translate(253,39)"/>
<path d="M0 0 C2.48002593 2.48002593 2.29694693 3.32832513 2.3125 6.75 C2.24180906 11.18424975 1.40454652 14.19280134 -1 18 C-1.33 18 -1.66 18 -2 18 C-1.48758893 11.97099313 -0.930215 5.97995357 0 0 Z " fill="#000C30" transform="translate(107,35)"/>
<path d="M0 0 C1.9451 2.91765 2.45276317 4.62537285 3 8 C3.99 8.33 4.98 8.66 6 9 C6.33 10.65 6.66 12.3 7 14 C5.68 14 4.36 14 3 14 C0.96006486 9.07015675 -0.40652968 5.42039575 0 0 Z " fill="#002285" transform="translate(140,67)"/>
<path d="M0 0 C0.66 0 1.32 0 2 0 C2.99 3.63 3.98 7.26 5 11 C3.35 11 1.7 11 0 11 C-0.19406478 9.35492782 -0.38007935 7.70890406 -0.5625 6.0625 C-0.66691406 5.14597656 -0.77132812 4.22945312 -0.87890625 3.28515625 C-0.91886719 2.53105469 -0.95882812 1.77695312 -1 1 C-0.67 0.67 -0.34 0.34 0 0 Z " fill="#34509F" transform="translate(141,40)"/>
<path d="M0 0 C2 3 2 3 3.4375 5.9375 C4.84424651 8.96636261 4.84424651 8.96636261 6.75 11.125 C8 13 8 13 7.6875 15.25 C7.460625 15.8275 7.23375 16.405 7 17 C6.38125 15.88625 6.38125 15.88625 5.75 14.75 C4.1537827 11.96095526 4.1537827 11.96095526 1.875 10.125 C-0.68753459 7.22079413 -0.78508498 4.79683209 -1 1 C-0.67 0.67 -0.34 0.34 0 0 Z " fill="#00248E" transform="translate(362,64)"/>
<path d="M0 0 C0.97839844 0.32484375 0.97839844 0.32484375 1.9765625 0.65625 C9.97826296 3.47776541 9.97826296 3.47776541 18 2 C18 2.99 18 3.98 18 5 C15.56183415 5.0809723 13.12635616 5.14046972 10.6875 5.1875 C9.65206055 5.22520508 9.65206055 5.22520508 8.59570312 5.26367188 C3.4824036 5.33777767 3.4824036 5.33777767 1.01953125 3.61328125 C0 2 0 2 0 0 Z " fill="#002CAB" transform="translate(250,75)"/>
<path d="M0 0 C0.66 0 1.32 0 2 0 C3.1577506 3.47325181 3.06866652 6.36067448 3 10 C3.66 10 4.32 10 5 10 C5 10.66 5 11.32 5 12 C3.35 12 1.7 12 0 12 C0 8.04 0 4.08 0 0 Z " fill="#00207D" transform="translate(77,55)"/>
<path d="M0 0 C1.65 0 3.3 0 5 0 C5.53293835 1.74635165 6.05090663 3.49727652 6.5625 5.25 C6.85253906 6.22453125 7.14257812 7.1990625 7.44140625 8.203125 C8 11 8 11 7 15 C4.69 10.05 2.38 5.1 0 0 Z " fill="#1E2C53" transform="translate(246,24)"/>
<path d="M0 0 C0.33 0.99 0.66 1.98 1 3 C0 4.5 0 4.5 -2 6 C-8.90410959 6.65753425 -8.90410959 6.65753425 -12.5 4.5 C-12.995 4.005 -13.49 3.51 -14 3 C-13.67 2.34 -13.34 1.68 -13 1 C-11.948125 1.495 -11.948125 1.495 -10.875 2 C-7.67262761 3.11386866 -5.36585848 3.37398428 -2 3 C-1.34 2.01 -0.68 1.02 0 0 Z " fill="#275AED" transform="translate(264,68)"/>
<path d="M0 0 C0.33 0.66 0.66 1.32 1 2 C1.61875 2.20625 2.2375 2.4125 2.875 2.625 C6.24501615 4.80559868 6.8580634 8.280055 8 12 C5.59657572 11.6213092 4.3394762 11.39919886 2.734375 9.51171875 C2.24710937 8.60873047 2.24710937 8.60873047 1.75 7.6875 C1.24726563 6.79611328 1.24726563 6.79611328 0.734375 5.88671875 C0 4 0 4 0 0 Z " fill="#365ABF" transform="translate(290,48)"/>
<path d="M0 0 C1.32 0.33 2.64 0.66 4 1 C3.67 4.3 3.34 7.6 3 11 C2.01 10.67 1.02 10.34 0 10 C0 6.7 0 3.4 0 0 Z " fill="#4B66B4" transform="translate(367,40)"/>
<path d="M0 0 C0.99 0 1.98 0 3 0 C5.03435531 3.72965139 6 5.66905042 6 10 C2.64888166 7.76592111 1.18446044 6.73784176 0.1875 2.75 C0.125625 1.8425 0.06375 0.935 0 0 Z " fill="#2155EA" transform="translate(371,68)"/>
<path d="M0 0 C4.81449408 0.48144941 7.60171741 0.8008587 12 3 C12 5.97 12 8.94 12 12 C11.67 12 11.34 12 11 12 C11 9.69 11 7.38 11 5 C10.01 5 9.02 5 8 5 C7.67 4.34 7.34 3.68 7 3 C4.67843403 2.59270772 2.3431213 2.25561323 0 2 C0 1.34 0 0.68 0 0 Z " fill="#061F69" transform="translate(176,40)"/>
<path d="M0 0 C2.1385485 2.1385485 2.42655063 3.13275314 3 6 C5.31 6.66 7.62 7.32 10 8 C10 8.66 10 9.32 10 10 C3.57789614 10.48468708 3.57789614 10.48468708 1.0625 8.375 C-0.25066255 5.43969547 -0.21691118 3.18136394 0 0 Z " fill="#7183B6" transform="translate(116,28)"/>
<path d="M0 0 C0.433125 0.474375 0.86625 0.94875 1.3125 1.4375 C3.02309613 3.23686957 3.02309613 3.23686957 6 4 C6 5.32 6 6.64 6 8 C6.66 8 7.32 8 8 8 C7.67 9.32 7.34 10.64 7 12 C0.29612756 4.88610478 0.29612756 4.88610478 0 0 Z " fill="#002798" transform="translate(285,66)"/>
<path d="M0 0 C2 2 2 2 3.8125 5.4375 C5.65261648 8.77054117 7.50253596 10.34841976 11 12 C10.67 12.66 10.34 13.32 10 14 C1.56502242 9.50134529 1.56502242 9.50134529 0.1796875 5.8203125 C-0.0625 3.625 -0.0625 3.625 0 0 Z " fill="#0230B4" transform="translate(170,60)"/>
<path d="M0 0 C0.66 0 1.32 0 2 0 C2.33 0.66 2.66 1.32 3 2 C5.96349281 2.98783094 7.9712663 3.13410525 11.0625 3.125 C12.37927734 3.12886719 12.37927734 3.12886719 13.72265625 3.1328125 C16.03198266 3.14833424 16.03198266 3.14833424 18 2 C17.67 2.99 17.34 3.98 17 5 C14.72942623 5.05398987 12.45848712 5.09278742 10.1875 5.125 C8.29064453 5.15980469 8.29064453 5.15980469 6.35546875 5.1953125 C3 5 3 5 0 3 C0 2.01 0 1.02 0 0 Z " fill="#133CB3" transform="translate(142,57)"/>
<path d="M0 0 C1.32 0 2.64 0 4 0 C5.484375 1.53125 5.484375 1.53125 6.75 3.5 C7.39195312 4.47453125 7.39195312 4.47453125 8.046875 5.46875 C8.36140625 5.9740625 8.6759375 6.479375 9 7 C4.71193127 6.52354792 2.73352513 5.34097516 0 2 C0 1.34 0 0.68 0 0 Z " fill="#345ED4" transform="translate(366,57)"/>
<path d="M0 0 C2.31 0 4.62 0 7 0 C7 1.98 7 3.96 7 6 C4.0625 4.6875 4.0625 4.6875 1 3 C0.67 2.01 0.34 1.02 0 0 Z " fill="#5478DE" transform="translate(337,52)"/>
<path d="M0 0 C4.12989477 4.26311718 4.61271765 7.28758534 5 13 C1.44992282 9.0949151 0.18180084 6.02265357 -1 1 C-0.67 0.67 -0.34 0.34 0 0 Z " fill="#5674CA" transform="translate(210,42)"/>
<path d="M0 0 C2.0625 0.4375 2.0625 0.4375 4 1 C3.67 2.98 3.34 4.96 3 7 C1.68 6.67 0.36 6.34 -1 6 C-1.042721 4.33388095 -1.04063832 2.66617115 -1 1 C-0.67 0.67 -0.34 0.34 0 0 Z " fill="#476EDC" transform="translate(174,54)"/>
<path d="M0 0 C0 1.98 0 3.96 0 6 C-2.31 6.33 -4.62 6.66 -7 7 C-5.80061288 4.10148113 -3.63852862 0 0 0 Z " fill="#4167D2" transform="translate(159,52)"/>
<path d="M0 0 C1.98 0.495 1.98 0.495 4 1 C2.02 5.455 2.02 5.455 0 10 C-0.33 10 -0.66 10 -1 10 C-1.02689216 8.52093108 -1.04634621 7.04172517 -1.0625 5.5625 C-1.07410156 4.73878906 -1.08570313 3.91507813 -1.09765625 3.06640625 C-1 1 -1 1 0 0 Z " fill="#648DFB" transform="translate(252,56)"/>
<path d="M0 0 C1.98 0 3.96 0 6 0 C6.33 2.31 6.66 4.62 7 7 C6.5875 6.505 6.175 6.01 5.75 5.5 C3.87797662 3.56613908 3.87797662 3.56613908 0 4 C0 2.68 0 1.36 0 0 Z " fill="#3555B1" transform="translate(172,48)"/>
<path d="M0 0 C0.66 0 1.32 0 2 0 C2.33 1.98 2.66 3.96 3 6 C3.33 6 3.66 6 4 6 C4 7.65 4 9.3 4 11 C3.01 10.67 2.02 10.34 1 10 C-0.60725635 6.78548731 -0.05748185 3.56387464 0 0 Z " fill="#4B67B6" transform="translate(290,40)"/>
<path d="M0 0 C1.65 0 3.3 0 5 0 C4.690625 0.53625 4.38125 1.0725 4.0625 1.625 C2.82172561 4.3984957 2.4090325 7.00042837 2 10 C1.34 9.67 0.68 9.34 0 9 C0 6.03 0 3.06 0 0 Z " fill="#667295" transform="translate(254,24)"/>
<path d="M0 0 C0.66 0 1.32 0 2 0 C1.67 3.63 1.34 7.26 1 11 C0.34 11 -0.32 11 -1 11 C-1.02688151 9.35425434 -1.04634123 7.70838587 -1.0625 6.0625 C-1.07410156 5.14597656 -1.08570313 4.22945312 -1.09765625 3.28515625 C-1 1 -1 1 0 0 Z " fill="#2347AC" transform="translate(170,49)"/>
<path d="M0 0 C2.1991413 4.39828259 2.51855059 7.18550592 3 12 C2.01 12 1.02 12 0 12 C0 8.04 0 4.08 0 0 Z " fill="#002388" transform="translate(331,68)"/>
<path d="M0 0 C1.15227823 0.76116551 2.2966386 1.53432693 3.4375 2.3125 C4.07558594 2.74175781 4.71367187 3.17101563 5.37109375 3.61328125 C7 5 7 5 8 8 C5.125 7.375 5.125 7.375 2 6 C0.625 2.875 0.625 2.875 0 0 Z " fill="#204DCD" transform="translate(171,60)"/>
<path d="M0 0 C0.99 0.495 0.99 0.495 2 1 C2 1.66 2 2.32 2 3 C5.3 3.99 8.6 4.98 12 6 C8.03956254 7.32014582 5.90278401 6.27727477 2 5 C1.34 4.67 0.68 4.34 0 4 C0 2.68 0 1.36 0 0 Z " fill="#365DCB" transform="translate(332,53)"/>
<path d="M0 0 C2.31 0 4.62 0 7 0 C6.67 1.32 6.34 2.64 6 4 C4.35 3.67 2.7 3.34 1 3 C0.67 2.01 0.34 1.02 0 0 Z " fill="#2A50BC" transform="translate(82,55)"/>
<path d="M0 0 C0.66 0 1.32 0 2 0 C2 4.29 2 8.58 2 13 C1.67 13 1.34 13 1 13 C-1.42857143 4.57142857 -1.42857143 4.57142857 0 0 Z " fill="#1F3A87" transform="translate(286,40)"/>
<path d="M0 0 C4.29 0 8.58 0 13 0 C13 0.66 13 1.32 13 2 C8.545 2.495 8.545 2.495 4 3 C4 2.34 4 1.68 4 1 C2.68 0.67 1.36 0.34 0 0 Z " fill="#133DB8" transform="translate(293,61)"/>
<path d="M0 0 C0.66 0 1.32 0 2 0 C3.28571429 7.42857143 3.28571429 7.42857143 2 11 C0.19769832 7.17010894 -0.19622241 4.21878192 0 0 Z " fill="#476ACD" transform="translate(147,48)"/>
<path d="M0 0 C0.33 2.31 0.66 4.62 1 7 C0.67 6.01 0.34 5.02 0 4 C-2.31 4 -4.62 4 -7 4 C-3.17391304 0 -3.17391304 0 0 0 Z " fill="#19327D" transform="translate(140,41)"/>
<path d="M0 0 C0.99 1.485 0.99 1.485 2 3 C3.0828125 4.2375 3.0828125 4.2375 4.1875 5.5 C4.785625 6.325 5.38375 7.15 6 8 C5.67 8.99 5.34 9.98 5 11 C4.34 11 3.68 11 3 11 C0 4.5 0 4.5 0 0 Z " fill="#0236CB" transform="translate(370,69)"/>
<path d="M0 0 C2 1 2 1 3 3.9375 C3.33 4.948125 3.66 5.95875 4 7 C4.66 7.66 5.32 8.32 6 9 C5.01 9.33 4.02 9.66 3 10 C0.64551835 7.44931155 0.01672076 6.28982642 -0.1875 2.75 C-0.125625 1.8425 -0.06375 0.935 0 0 Z " fill="#5066A5" transform="translate(256,34)"/>
<path d="M0 0 C1.32 0.33 2.64 0.66 4 1 C0.535 3.97 0.535 3.97 -3 7 C-2.25 2.25 -2.25 2.25 0 0 Z " fill="#8590B1" transform="translate(261,24)"/>
<path d="M0 0 C0.99 0.495 0.99 0.495 2 1 C2 1.66 2 2.32 2 3 C2.99 3 3.98 3 5 3 C5.33 4.32 5.66 5.64 6 7 C5.01 7 4.02 7 3 7 C0.64276511 4.46815512 0 3.52809907 0 0 Z " fill="#3C70FE" transform="translate(374,68)"/>
<path d="M0 0 C0.66 0 1.32 0 2 0 C2.66 2.64 3.32 5.28 4 8 C3.34 8 2.68 8 2 8 C0.3125 5.6875 0.3125 5.6875 -1 3 C-0.67 2.01 -0.34 1.02 0 0 Z " fill="#7A95E1" transform="translate(212,41)"/>
<path d="M0 0 C0.33 0 0.66 0 1 0 C1.25 2.3125 1.25 2.3125 1 5 C-0.6875 6.875 -0.6875 6.875 -3 8 C-5.75 7.6875 -5.75 7.6875 -8 7 C-8 6.67 -8 6.34 -8 6 C-7.05125 5.7525 -6.1025 5.505 -5.125 5.25 C-1.91306809 4.3142923 -1.91306809 4.3142923 -0.625 1.875 C-0.41875 1.25625 -0.2125 0.6375 0 0 Z " fill="#0A32A7" transform="translate(92,55)"/>
<path d="M0 0 C0.33 0 0.66 0 1 0 C1.144375 1.216875 1.28875 2.43375 1.4375 3.6875 C1.82780953 6.82670377 2.32351856 9.9075134 3 13 C2.01 12.34 1.02 11.68 0 11 C-0.29296875 8.3984375 -0.29296875 8.3984375 -0.1875 5.375 C-0.16042969 4.37210938 -0.13335937 3.36921875 -0.10546875 2.3359375 C-0.07066406 1.56507812 -0.03585938 0.79421875 0 0 Z " fill="#022794" transform="translate(167,51)"/>
<path d="M0 0 C0.5625 1.9375 0.5625 1.9375 1 4 C0.67 4.33 0.34 4.66 0 5 C-0.23192865 6.51469448 -0.41215238 8.03754562 -0.5625 9.5625 C-0.64628906 10.38878906 -0.73007813 11.21507812 -0.81640625 12.06640625 C-0.87699219 12.70449219 -0.93757812 13.34257813 -1 14 C-1.33 14 -1.66 14 -2 14 C-2.05410687 12.22950311 -2.09284119 10.45853151 -2.125 8.6875 C-2.14820313 7.70136719 -2.17140625 6.71523438 -2.1953125 5.69921875 C-2 3 -2 3 0 0 Z " fill="#153593" transform="translate(170,45)"/>
<path d="M0 0 C2.475 0.495 2.475 0.495 5 1 C3.35 2.65 1.7 4.3 0 6 C0 4.02 0 2.04 0 0 Z " fill="#5A74BD" transform="translate(292,41)"/>
<path d="M0 0 C0.33 0 0.66 0 1 0 C1.33 2.64 1.66 5.28 2 8 C0.68 8.99 -0.64 9.98 -2 11 C-1.34 7.37 -0.68 3.74 0 0 Z " fill="#06216E" transform="translate(253,39)"/>
<path d="M0 0 C0.99 0 1.98 0 3 0 C3 0.66 3 1.32 3 2 C3.99 1.67 4.98 1.34 6 1 C6 1.99 6 2.98 6 4 C3.03 3.505 3.03 3.505 0 3 C0 2.01 0 1.02 0 0 Z " fill="#678FFE" transform="translate(220,57)"/>
<path d="M0 0 C3.34373475 0.55728913 6.03312999 1.35173889 9 3 C6.36 3 3.72 3 1 3 C0.67 2.01 0.34 1.02 0 0 Z " fill="#2F56C8" transform="translate(144,57)"/>
<path d="M0 0 C0.99 0.33 1.98 0.66 3 1 C3.33 3.97 3.66 6.94 4 10 C3.34 9.67 2.68 9.34 2 9 C1.3671875 6.93359375 1.3671875 6.93359375 0.875 4.4375 C0.70742188 3.61121094 0.53984375 2.78492188 0.3671875 1.93359375 C0.24601562 1.29550781 0.12484375 0.65742187 0 0 Z " fill="#264AB1" transform="translate(329,50)"/>
</svg>
